<?xml version="1.0" standalone="no"?>
<!DOCTYPE svg PUBLIC "-//W3C//DTD SVG 20010904//EN"
 "http://www.w3.org/TR/2001/REC-SVG-20010904/DTD/svg10.dtd">
<svg version="1.0" xmlns="http://www.w3.org/2000/svg"
 width="512.000000pt" height="512.000000pt" viewBox="0 0 512.000000 512.000000"
 preserveAspectRatio="xMidYMid meet">

<g transform="translate(0.000000,512.000000) scale(0.100000,-0.100000)"
fill="#0390fc" stroke="white">
<path d="M2362 5110 c-679 -53 -1319 -382 -1759 -905 -800 -952 -798 -2338 5
-3295 407 -485 974 -793 1627 -886 159 -23 486 -23 648 -1 801 110 1484 563
1886 1251 232 398 345 822 344 1296 -1 229 -20 393 -72 605 -250 1017 -1107
1784 -2146 1919 -146 19 -393 27 -533 16z m288 -799 c36 -36 46 -73 30 -112
-18 -42 -56 -69 -99 -69 -44 0 -75 20 -97 62 -52 101 86 200 166 119z m-941
-98 c63 -59 29 -153 -54 -153 -117 0 -114 176 2 179 13 1 36 -11 52 -26z
m1850 0 c63 -59 29 -153 -54 -153 -83 0 -117 94 -54 153 16 15 40 27 54 27 14
0 38 -12 54 -27z m-1582 -363 c127 -77 41 -278 -103 -238 -96 26 -129 143 -62
216 43 46 111 55 165 22z m1364 -16 c99 -94 7 -260 -124 -223 -109 30 -130
180 -34 240 46 29 118 22 158 -17z m-691 -86 c148 -75 95 -298 -70 -298 -120
0 -197 132 -138 235 25 43 93 85 138 85 14 0 46 -10 70 -22z m-1445 -276 c86
-86 -11 -221 -122 -168 -64 30 -79 118 -29 165 47 44 109 46 151 3z m2900 -2
c74 -70 3 -195 -98 -176 -56 10 -97 75 -83 129 7 31 52 75 79 79 33 6 77 -9
102 -32z m-1719 -148 c188 -97 191 -357 5 -454 -201 -105 -425 85 -359 304 21
69 98 143 178 169 40 13 133 3 176 -19z m611 0 c55 -29 118 -102 133 -157 60
-216 -164 -400 -361 -297 -206 108 -175 399 51 473 40 13 133 3 177 -19z
m-1247 -101 c92 -49 106 -195 25 -259 -70 -56 -159 -49 -218 17 -39 43 -52 85
-42 134 23 104 141 159 235 108z m1810 4 c37 -19 76 -71 85 -112 10 -49 -3
-91 -42 -134 -128 -141 -345 19 -250 185 39 68 137 97 207 61z m-1479 -450
c149 -76 179 -284 58 -404 -49 -50 -103 -71 -179 -71 -78 0 -130 22 -182 76
-50 53 -71 106 -71 180 1 115 81 216 196 245 48 12 124 1 178 -26z m1243 -3
c82 -45 129 -126 128 -222 0 -69 -22 -124 -70 -174 -51 -53 -104 -76 -180 -76
-124 0 -213 67 -248 187 -31 106 17 221 115 280 29 17 65 34 80 36 50 9 126
-5 175 -31z m-2033 -87 c116 -61 72 -245 -58 -247 -71 -1 -122 40 -138 110 -9
41 23 110 62 134 35 22 95 23 134 3z m2710 -2 c28 -17 69 -84 69 -114 -1 -35
-40 -99 -71 -114 -67 -35 -141 -15 -179 48 -70 114 66 248 181 180z m-3198
-53 c34 -27 43 -70 23 -109 -30 -57 -85 -67 -135 -25 -86 72 24 203 112 134z
m3666 -6 c25 -20 31 -34 31 -64 0 -30 -6 -44 -31 -64 -38 -33 -79 -33 -116 -2
-22 19 -28 32 -28 66 0 80 82 116 144 64z m-2078 -372 c187 -97 183 -356 -6
-455 -57 -30 -165 -30 -221 0 -54 29 -117 101 -132 151 -66 219 158 409 359
304z m604 4 c84 -39 134 -111 142 -208 10 -101 -47 -201 -141 -251 -56 -30
-164 -29 -221 0 -146 77 -189 257 -92 385 71 93 204 125 312 74z m-1255 -78
c59 -31 82 -66 87 -130 7 -96 -60 -168 -155 -168 -53 0 -93 20 -126 62 -50 67
-43 148 18 207 55 54 109 62 176 29z m1789 12 c44 -12 97 -64 112 -107 14 -44
4 -100 -27 -141 -93 -122 -283 -56 -284 99 0 60 31 107 90 137 50 25 61 26
109 12z m-2355 -370 c30 -11 66 -65 66 -98 0 -32 -28 -78 -56 -93 -53 -28
-124 -2 -153 56 -20 41 0 100 42 125 36 22 63 25 101 10z m2912 -9 c44 -27 60
-77 40 -124 -35 -85 -144 -94 -189 -17 -22 37 -21 68 3 108 33 53 91 66 146
33z m-1426 -163 c75 -52 99 -131 61 -205 -58 -114 -216 -118 -279 -8 -59 103
18 235 138 235 32 0 57 -7 80 -22z m-690 -148 c63 -33 89 -127 51 -187 -79
-126 -279 -41 -240 101 13 48 38 75 84 91 38 13 72 11 105 -5z m1352 -7 c45
-22 72 -91 57 -146 -30 -109 -180 -130 -240 -34 -29 46 -22 118 17 158 46 48
101 55 166 22z m-1607 -458 c24 -23 29 -39 26 -80 -3 -28 -56 -75 -86 -75 -14
0 -38 12 -54 28 -63 58 -29 152 54 152 25 0 44 -8 60 -25z m1850 0 c24 -23 29
-39 26 -80 -3 -28 -56 -75 -86 -75 -14 0 -38 12 -54 28 -63 58 -29 152 54 152
25 0 44 -8 60 -25z m-915 -74 c36 -36 46 -73 30 -112 -39 -92 -161 -92 -200 0
-16 39 -6 76 30 112 22 23 38 29 70 29 32 0 48 -6 70 -29z"/>
</g>
</svg>
